<svg width="62" height="16" viewBox="0 0 62 16" fill="none" xmlns="http://www.w3.org/2000/svg">
<path d="M0.032 0.863999H6.368V3.552H5.048V6.696H6.68L8.984 3.552H8V0.863999H14.36V3.552H12.104L8.912 7.512L12.536 12.312H14.96V15H7.64V12.312H9.224L6.968 9.288H5.048V12.312H6.368V15H0.032V12.312H1.976V3.552H0.032V0.863999ZM22.7688 0.336C24.1768 0.336 25.4168 0.632 26.4888 1.224C27.5768 1.8 28.4248 2.648 29.0328 3.768C29.6408 4.888 29.9448 6.272 29.9448 7.92C29.9448 9.552 29.6408 10.936 29.0328 12.072C28.4248 13.208 27.5848 14.072 26.5128 14.664C25.4408 15.24 24.2008 15.528 22.7928 15.528C21.4008 15.528 20.1608 15.24 19.0728 14.664C18.0008 14.072 17.1608 13.208 16.5528 12.072C15.9448 10.936 15.6408 9.552 15.6408 7.92C15.6408 6.272 15.9448 4.888 16.5528 3.768C17.1608 2.648 18.0008 1.8 19.0728 1.224C20.1448 0.632 21.3768 0.336 22.7688 0.336ZM22.7928 2.928C21.4808 2.928 20.4968 3.352 19.8408 4.2C19.1848 5.032 18.8568 6.272 18.8568 7.92C18.8568 9.568 19.1848 10.816 19.8408 11.664C20.4968 12.512 21.4808 12.936 22.7928 12.936C24.1048 12.936 25.0888 12.512 25.7448 11.664C26.4168 10.816 26.7528 9.568 26.7528 7.92C26.7528 6.272 26.4248 5.032 25.7688 4.2C25.1128 3.352 24.1208 2.928 22.7928 2.928ZM31.9773 0.863999H38.3133V3.552H36.9933V6.696H38.6253L40.9293 3.552H39.9453V0.863999H46.3053V3.552H44.0493L40.8573 7.512L44.4813 12.312H46.9053V15H39.5853V12.312H41.1693L38.9133 9.288H36.9933V12.312H38.3133V15H31.9773V12.312H33.9213V3.552H31.9773V0.863999ZM54.7141 0.336C56.1221 0.336 57.3621 0.632 58.4341 1.224C59.5221 1.8 60.3701 2.648 60.9781 3.768C61.5861 4.888 61.8901 6.272 61.8901 7.92C61.8901 9.552 61.5861 10.936 60.9781 12.072C60.3701 13.208 59.5301 14.072 58.4581 14.664C57.3861 15.24 56.1461 15.528 54.7381 15.528C53.3461 15.528 52.1061 15.24 51.0181 14.664C49.9461 14.072 49.1061 13.208 48.4981 12.072C47.8901 10.936 47.5861 9.552 47.5861 7.92C47.5861 6.272 47.8901 4.888 48.4981 3.768C49.1061 2.648 49.9461 1.8 51.0181 1.224C52.0901 0.632 53.3221 0.336 54.7141 0.336ZM54.7381 2.928C53.4261 2.928 52.4421 3.352 51.7861 4.2C51.1301 5.032 50.8021 6.272 50.8021 7.92C50.8021 9.568 51.1301 10.816 51.7861 11.664C52.4421 12.512 53.4261 12.936 54.7381 12.936C56.0501 12.936 57.0341 12.512 57.6901 11.664C58.3621 10.816 58.6981 9.568 58.6981 7.92C58.6981 6.272 58.3701 5.032 57.7141 4.2C57.0581 3.352 56.0661 2.928 54.7381 2.928Z" fill="black"/>
</svg>
